<svg width="1920" height="1080" viewBox="0 0 1920 1080" fill="none" xmlns="http://www.w3.org/2000/svg">
<g clip-path="url(#clip0_1_90)">
<rect width="1920" height="1080" fill="#295F6E"/>
<path opacity="0.2" d="M1141.04 830.752C1137.34 830.948 1133.75 832.105 1130.63 834.11C1127.51 836.114 1124.97 838.898 1123.25 842.185C1121.54 845.472 1120.71 849.15 1120.84 852.856C1120.98 856.561 1122.09 860.167 1124.04 863.317L1166.92 934.698C1123.29 976.03 1094.09 1032.35 1088.04 1095.46C1086.86 1120.1 1112.85 1120.09 1112.85 1120.09H1574.51C1574.51 1120.09 1601.25 1120.08 1599.95 1094.21C1593.64 1031.55 1564.48 975.702 1521.07 934.635L1563.89 863.317C1565.87 860.127 1566.96 856.472 1567.08 852.721C1567.19 848.97 1566.31 845.256 1564.53 841.953C1562.75 838.65 1560.13 835.875 1556.93 833.909C1553.73 831.942 1550.08 830.853 1546.33 830.752C1542.5 830.655 1538.71 831.59 1535.37 833.459C1532.02 835.329 1529.25 838.064 1527.32 841.378L1487.38 907.821C1446.39 880.337 1397.2 864.067 1344.06 864.067C1290.87 864.067 1241.62 880.354 1200.61 907.883L1160.67 841.378C1158.7 837.968 1155.82 835.17 1152.36 833.294C1148.89 831.419 1144.98 830.539 1141.04 830.752V830.752ZM1215.99 992.078C1220.19 992.077 1224.35 992.905 1228.23 994.514C1232.12 996.122 1235.64 998.479 1238.62 1001.45C1241.59 1004.42 1243.94 1007.95 1245.55 1011.83C1247.16 1015.72 1247.99 1019.88 1247.99 1024.08C1247.99 1028.28 1247.16 1032.44 1245.55 1036.33C1243.94 1040.21 1241.59 1043.74 1238.62 1046.71C1235.64 1049.68 1232.12 1052.04 1228.23 1053.65C1224.35 1055.25 1220.19 1056.08 1215.99 1056.08C1211.78 1056.08 1207.62 1055.25 1203.74 1053.65C1199.86 1052.04 1196.33 1049.68 1193.36 1046.71C1190.39 1043.74 1188.03 1040.21 1186.42 1036.33C1184.81 1032.44 1183.98 1028.28 1183.98 1024.08C1183.98 1019.88 1184.81 1015.72 1186.42 1011.83C1188.03 1007.95 1190.39 1004.42 1193.36 1001.45C1196.33 998.479 1199.86 996.122 1203.74 994.514C1207.62 992.905 1211.78 992.077 1215.99 992.078ZM1472.01 992.078C1476.21 992.077 1480.37 992.905 1484.25 994.514C1488.14 996.122 1491.66 998.479 1494.64 1001.45C1497.61 1004.42 1499.96 1007.95 1501.57 1011.83C1503.18 1015.72 1504.01 1019.88 1504.01 1024.08C1504.01 1028.28 1503.18 1032.44 1501.57 1036.33C1499.96 1040.21 1497.61 1043.74 1494.64 1046.71C1491.66 1049.68 1488.14 1052.04 1484.25 1053.65C1480.37 1055.25 1476.21 1056.08 1472.01 1056.08C1467.8 1056.08 1463.64 1055.25 1459.76 1053.65C1455.88 1052.04 1452.35 1049.68 1449.38 1046.71C1446.41 1043.74 1444.05 1040.21 1442.44 1036.33C1440.83 1032.44 1440 1028.28 1440 1024.08C1440 1019.88 1440.83 1015.72 1442.44 1011.83C1444.05 1007.95 1446.41 1004.42 1449.38 1001.45C1452.35 998.479 1455.88 996.122 1459.76 994.514C1463.64 992.905 1467.8 992.077 1472.01 992.078Z" fill="black"/>
<path fill-rule="evenodd" clip-rule="evenodd" d="M1131.39 818.044C1141.49 811.981 1154.6 815.258 1160.66 825.361L1211.87 910.701C1217.93 920.805 1214.65 933.91 1204.55 939.973C1194.44 946.035 1181.34 942.759 1175.28 932.655L1124.07 847.315C1118.01 837.211 1121.29 824.106 1131.39 818.044Z" fill="#30DD81"/>
<path fill-rule="evenodd" clip-rule="evenodd" d="M1556.58 818.044C1566.68 824.106 1569.96 837.211 1563.89 847.315L1512.69 932.655C1506.63 942.759 1493.52 946.035 1483.42 939.973C1473.31 933.91 1470.04 920.805 1476.1 910.701L1527.3 825.361C1533.37 815.258 1546.47 811.981 1556.58 818.044Z" fill="#30DD81"/>
<path d="M1344.06 848.066C1210.35 848.066 1100.5 949.624 1088.04 1079.46C1086.86 1104.1 1112.85 1104.09 1112.85 1104.09H1574.51C1574.51 1104.09 1601.25 1104.08 1599.95 1078.21C1586.92 948.964 1477.34 848.066 1344.06 848.066Z" fill="#30DD81"/>
<path opacity="0.2" d="M1215.99 992.078C1211.79 992.078 1207.63 992.905 1203.74 994.514C1199.86 996.122 1196.33 998.479 1193.36 1001.45C1190.39 1004.42 1188.03 1007.95 1186.42 1011.83C1184.81 1015.72 1183.99 1019.88 1183.99 1024.08C1183.99 1028.28 1184.81 1032.44 1186.42 1036.33C1188.03 1040.21 1190.39 1043.74 1193.36 1046.71C1196.33 1049.68 1199.86 1052.04 1203.74 1053.65C1207.63 1055.25 1211.79 1056.08 1215.99 1056.08C1220.19 1056.08 1224.35 1055.25 1228.24 1053.65C1232.12 1052.04 1235.65 1049.68 1238.62 1046.71C1241.59 1043.74 1243.95 1040.21 1245.56 1036.33C1247.16 1032.44 1247.99 1028.28 1247.99 1024.08C1247.99 1019.88 1247.16 1015.72 1245.56 1011.83C1243.95 1007.95 1241.59 1004.42 1238.62 1001.45C1235.65 998.479 1232.12 996.122 1228.24 994.514C1224.35 992.905 1220.19 992.078 1215.99 992.078V992.078ZM1472.01 992.078C1467.81 992.078 1463.65 992.905 1459.76 994.514C1455.88 996.122 1452.35 998.479 1449.38 1001.45C1446.41 1004.42 1444.05 1007.95 1442.44 1011.83C1440.84 1015.72 1440.01 1019.88 1440.01 1024.08C1440.01 1028.28 1440.84 1032.44 1442.44 1036.33C1444.05 1040.21 1446.41 1043.74 1449.38 1046.71C1452.35 1049.68 1455.88 1052.04 1459.76 1053.65C1463.65 1055.25 1467.81 1056.08 1472.01 1056.08C1476.21 1056.08 1480.37 1055.25 1484.26 1053.65C1488.14 1052.04 1491.67 1049.68 1494.64 1046.71C1497.61 1043.74 1499.97 1040.21 1501.58 1036.33C1503.18 1032.44 1504.01 1028.28 1504.01 1024.08C1504.01 1019.88 1503.18 1015.72 1501.58 1011.83C1499.97 1007.95 1497.61 1004.42 1494.64 1001.45C1491.67 998.479 1488.14 996.122 1484.26 994.514C1480.37 992.905 1476.21 992.078 1472.01 992.078Z" fill="black"/>
<path d="M1215.99 976.077C1220.19 976.077 1224.35 976.904 1228.23 978.513C1232.12 980.121 1235.64 982.478 1238.62 985.45C1241.59 988.422 1243.94 991.949 1245.55 995.832C1247.16 999.715 1247.99 1003.88 1247.99 1008.08C1247.99 1012.28 1247.16 1016.44 1245.55 1020.33C1243.94 1024.21 1241.59 1027.74 1238.62 1030.71C1235.64 1033.68 1232.12 1036.04 1228.23 1037.65C1224.35 1039.25 1220.19 1040.08 1215.99 1040.08C1211.78 1040.08 1207.62 1039.25 1203.74 1037.65C1199.86 1036.04 1196.33 1033.68 1193.36 1030.71C1190.38 1027.74 1188.03 1024.21 1186.42 1020.33C1184.81 1016.44 1183.98 1012.28 1183.98 1008.08C1183.98 1003.88 1184.81 999.715 1186.42 995.832C1188.03 991.95 1190.39 988.422 1193.36 985.45C1196.33 982.478 1199.86 980.121 1203.74 978.513C1207.62 976.904 1211.78 976.077 1215.99 976.077V976.077Z" fill="white"/>
<path d="M1472.01 976.077C1476.21 976.077 1480.37 976.904 1484.25 978.513C1488.14 980.121 1491.66 982.478 1494.64 985.45C1497.61 988.422 1499.96 991.95 1501.57 995.832C1503.18 999.715 1504.01 1003.88 1504.01 1008.08C1504.01 1012.28 1503.18 1016.44 1501.57 1020.33C1499.96 1024.21 1497.61 1027.74 1494.64 1030.71C1491.66 1033.68 1488.14 1036.04 1484.25 1037.65C1480.37 1039.25 1476.21 1040.08 1472.01 1040.08C1467.8 1040.08 1463.64 1039.25 1459.76 1037.65C1455.88 1036.04 1452.35 1033.68 1449.38 1030.71C1446.41 1027.74 1444.05 1024.21 1442.44 1020.33C1440.83 1016.44 1440 1012.28 1440 1008.08C1440 1003.88 1440.83 999.715 1442.44 995.832C1444.05 991.949 1446.41 988.422 1449.38 985.45C1452.35 982.478 1455.88 980.121 1459.76 978.513C1463.64 976.904 1467.8 976.077 1472.01 976.077Z" fill="white"/>
</g>
<defs>
<clipPath id="clip0_1_90">
<rect width="1920" height="1080" fill="white"/>
</clipPath>
</defs>
</svg>
