<svg width="1920" height="1080" viewBox="0 0 1920 1080" fill="none" xmlns="http://www.w3.org/2000/svg">
<rect width="1920" height="1080" fill="#4F8594"/>
<path opacity="0.2" d="M1141.04 402.752C1137.34 402.948 1133.75 404.105 1130.63 406.11C1127.51 408.114 1124.97 410.898 1123.25 414.185C1121.54 417.472 1120.71 421.15 1120.84 424.856C1120.98 428.562 1122.09 432.167 1124.04 435.317L1166.92 506.698C1123.29 548.03 1094.09 604.352 1088.04 667.461C1086.86 692.102 1112.85 692.088 1112.85 692.088H1574.51C1574.51 692.088 1601.25 692.082 1599.95 666.211C1593.64 603.549 1564.48 547.702 1521.07 506.636L1563.89 435.317C1565.87 432.127 1566.96 428.472 1567.08 424.721C1567.19 420.97 1566.31 417.256 1564.53 413.953C1562.75 410.65 1560.13 407.875 1556.93 405.909C1553.73 403.942 1550.08 402.853 1546.33 402.752C1542.5 402.655 1538.71 403.59 1535.37 405.459C1532.02 407.329 1529.25 410.064 1527.32 413.378L1487.38 479.821C1446.39 452.337 1397.2 436.067 1344.06 436.067C1290.87 436.067 1241.62 452.354 1200.61 479.883L1160.67 413.378C1158.7 409.968 1155.82 407.17 1152.36 405.295C1148.89 403.419 1144.98 402.539 1141.04 402.752V402.752ZM1215.99 564.078C1220.19 564.078 1224.35 564.905 1228.23 566.514C1232.12 568.122 1235.64 570.479 1238.62 573.451C1241.59 576.423 1243.94 579.951 1245.55 583.833C1247.16 587.716 1247.99 591.877 1247.99 596.08C1247.99 600.283 1247.16 604.444 1245.55 608.327C1243.94 612.21 1241.59 615.738 1238.62 618.709C1235.64 621.681 1232.12 624.038 1228.23 625.647C1224.35 627.255 1220.19 628.083 1215.99 628.083C1211.78 628.083 1207.62 627.255 1203.74 625.647C1199.86 624.038 1196.33 621.681 1193.36 618.709C1190.39 615.738 1188.03 612.21 1186.42 608.327C1184.81 604.444 1183.98 600.283 1183.98 596.08C1183.98 591.877 1184.81 587.716 1186.42 583.833C1188.03 579.951 1190.39 576.423 1193.36 573.451C1196.33 570.479 1199.86 568.122 1203.74 566.514C1207.62 564.905 1211.78 564.078 1215.99 564.078ZM1472.01 564.078C1476.21 564.078 1480.37 564.905 1484.25 566.514C1488.14 568.122 1491.66 570.479 1494.64 573.451C1497.61 576.423 1499.96 579.951 1501.57 583.833C1503.18 587.716 1504.01 591.877 1504.01 596.08C1504.01 600.283 1503.18 604.444 1501.57 608.327C1499.96 612.21 1497.61 615.738 1494.64 618.709C1491.66 621.681 1488.14 624.038 1484.25 625.647C1480.37 627.255 1476.21 628.083 1472.01 628.083C1467.8 628.083 1463.64 627.255 1459.76 625.647C1455.88 624.038 1452.35 621.681 1449.38 618.709C1446.41 615.738 1444.05 612.21 1442.44 608.327C1440.83 604.444 1440 600.283 1440 596.08C1440 591.877 1440.83 587.716 1442.44 583.833C1444.05 579.951 1446.41 576.423 1449.38 573.451C1452.35 570.479 1455.88 568.122 1459.76 566.514C1463.64 564.905 1467.8 564.078 1472.01 564.078Z" fill="black"/>
<path fill-rule="evenodd" clip-rule="evenodd" d="M1131.39 390.044C1141.49 383.981 1154.6 387.258 1160.66 397.361L1211.87 482.701C1217.93 492.805 1214.65 505.91 1204.55 511.973C1194.44 518.035 1181.34 514.759 1175.28 504.655L1124.07 419.315C1118.01 409.211 1121.29 396.106 1131.39 390.044Z" fill="#30DD81"/>
<path fill-rule="evenodd" clip-rule="evenodd" d="M1556.57 390.044C1566.68 396.106 1569.96 409.211 1563.89 419.315L1512.69 504.655C1506.63 514.759 1493.52 518.035 1483.42 511.973C1473.31 505.91 1470.04 492.805 1476.1 482.701L1527.3 397.361C1533.37 387.258 1546.47 383.981 1556.57 390.044Z" fill="#30DD81"/>
<path d="M1344.06 420.066C1210.35 420.066 1100.5 521.624 1088.04 651.46C1086.86 676.101 1112.85 676.087 1112.85 676.087H1574.51C1574.51 676.087 1601.25 676.081 1599.95 650.209C1586.92 520.964 1477.34 420.066 1344.06 420.066Z" fill="#30DD81"/>
<path opacity="0.2" d="M1215.99 564.078C1211.79 564.078 1207.63 564.905 1203.74 566.514C1199.86 568.122 1196.33 570.479 1193.36 573.451C1190.39 576.423 1188.03 579.951 1186.42 583.833C1184.81 587.716 1183.99 591.878 1183.99 596.08C1183.99 600.283 1184.81 604.444 1186.42 608.327C1188.03 612.21 1190.39 615.738 1193.36 618.709C1196.33 621.681 1199.86 624.038 1203.74 625.647C1207.63 627.255 1211.79 628.083 1215.99 628.083C1220.19 628.083 1224.35 627.255 1228.24 625.647C1232.12 624.038 1235.65 621.681 1238.62 618.709C1241.59 615.738 1243.95 612.21 1245.56 608.327C1247.16 604.444 1247.99 600.283 1247.99 596.08C1247.99 591.878 1247.16 587.716 1245.56 583.833C1243.95 579.951 1241.59 576.423 1238.62 573.451C1235.65 570.479 1232.12 568.122 1228.24 566.514C1224.35 564.905 1220.19 564.078 1215.99 564.078V564.078ZM1472.01 564.078C1467.81 564.078 1463.65 564.905 1459.76 566.514C1455.88 568.122 1452.35 570.479 1449.38 573.451C1446.41 576.423 1444.05 579.951 1442.44 583.833C1440.84 587.716 1440.01 591.878 1440.01 596.08C1440.01 600.283 1440.84 604.444 1442.44 608.327C1444.05 612.21 1446.41 615.738 1449.38 618.709C1452.35 621.681 1455.88 624.038 1459.76 625.647C1463.65 627.255 1467.81 628.083 1472.01 628.083C1476.21 628.083 1480.37 627.255 1484.26 625.647C1488.14 624.038 1491.67 621.681 1494.64 618.709C1497.61 615.738 1499.97 612.21 1501.58 608.327C1503.18 604.444 1504.01 600.283 1504.01 596.08C1504.01 591.878 1503.18 587.716 1501.58 583.833C1499.97 579.951 1497.61 576.423 1494.64 573.451C1491.67 570.479 1488.14 568.122 1484.26 566.514C1480.37 564.905 1476.21 564.078 1472.01 564.078Z" fill="black"/>
<path d="M1215.99 548.076C1220.19 548.076 1224.35 548.904 1228.23 550.513C1232.12 552.121 1235.64 554.478 1238.62 557.45C1241.59 560.422 1243.94 563.949 1245.55 567.832C1247.16 571.715 1247.99 575.876 1247.99 580.079C1247.99 584.282 1247.16 588.443 1245.55 592.326C1243.94 596.209 1241.59 599.737 1238.62 602.708C1235.64 605.68 1232.12 608.037 1228.23 609.646C1224.35 611.254 1220.19 612.082 1215.99 612.082C1211.78 612.082 1207.62 611.254 1203.74 609.646C1199.86 608.037 1196.33 605.68 1193.36 602.708C1190.38 599.737 1188.03 596.209 1186.42 592.326C1184.81 588.443 1183.98 584.282 1183.98 580.079C1183.98 575.876 1184.81 571.715 1186.42 567.832C1188.03 563.949 1190.39 560.422 1193.36 557.45C1196.33 554.478 1199.86 552.121 1203.74 550.513C1207.62 548.904 1211.78 548.076 1215.99 548.076V548.076Z" fill="white"/>
<path d="M1472.01 548.076C1476.21 548.076 1480.37 548.904 1484.25 550.513C1488.14 552.121 1491.66 554.478 1494.64 557.45C1497.61 560.422 1499.96 563.949 1501.57 567.832C1503.18 571.715 1504.01 575.876 1504.01 580.079C1504.01 584.282 1503.18 588.443 1501.57 592.326C1499.96 596.209 1497.61 599.737 1494.64 602.708C1491.66 605.68 1488.14 608.037 1484.25 609.646C1480.37 611.254 1476.21 612.082 1472.01 612.082C1467.8 612.082 1463.64 611.254 1459.76 609.646C1455.88 608.037 1452.35 605.68 1449.38 602.708C1446.41 599.737 1444.05 596.209 1442.44 592.326C1440.83 588.443 1440 584.282 1440 580.079C1440 575.876 1440.83 571.715 1442.44 567.832C1444.05 563.949 1446.41 560.422 1449.38 557.45C1452.35 554.478 1455.88 552.121 1459.76 550.513C1463.64 548.904 1467.8 548.076 1472.01 548.076Z" fill="white"/>
</svg>
