<svg width="1920" height="1080" viewBox="0 0 1920 1080" fill="none" xmlns="http://www.w3.org/2000/svg">
<g clip-path="url(#clip0_1_45)">
<rect width="1920" height="1080" fill="#295F6E"/>
<path opacity="0.2" d="M1141.04 790.752C1137.34 790.948 1133.75 792.105 1130.63 794.11C1127.51 796.114 1124.97 798.898 1123.25 802.185C1121.54 805.472 1120.71 809.15 1120.84 812.856C1120.98 816.561 1122.09 820.167 1124.04 823.317L1166.92 894.698C1123.29 936.03 1094.09 992.351 1088.04 1055.46C1086.86 1080.1 1112.85 1080.09 1112.85 1080.09H1574.51C1574.51 1080.09 1601.25 1080.08 1599.95 1054.21C1593.64 991.549 1564.48 935.702 1521.07 894.635L1563.89 823.317C1565.87 820.127 1566.96 816.472 1567.08 812.721C1567.19 808.97 1566.31 805.256 1564.53 801.953C1562.75 798.65 1560.13 795.875 1556.93 793.909C1553.73 791.942 1550.08 790.853 1546.33 790.752C1542.5 790.655 1538.71 791.59 1535.37 793.459C1532.02 795.329 1529.25 798.064 1527.32 801.378L1487.38 867.821C1446.39 840.337 1397.2 824.067 1344.06 824.067C1290.87 824.067 1241.62 840.354 1200.61 867.883L1160.67 801.378C1158.7 797.968 1155.82 795.17 1152.36 793.294C1148.89 791.419 1144.98 790.539 1141.04 790.752V790.752ZM1215.99 952.078C1220.19 952.077 1224.35 952.905 1228.23 954.514C1232.12 956.122 1235.64 958.479 1238.62 961.451C1241.59 964.423 1243.94 967.95 1245.55 971.833C1247.16 975.716 1247.99 979.877 1247.99 984.08C1247.99 988.283 1247.16 992.444 1245.55 996.327C1243.94 1000.21 1241.59 1003.74 1238.62 1006.71C1235.64 1009.68 1232.12 1012.04 1228.23 1013.65C1224.35 1015.25 1220.19 1016.08 1215.99 1016.08C1211.78 1016.08 1207.62 1015.25 1203.74 1013.65C1199.86 1012.04 1196.33 1009.68 1193.36 1006.71C1190.39 1003.74 1188.03 1000.21 1186.42 996.327C1184.81 992.444 1183.98 988.283 1183.98 984.08C1183.98 979.877 1184.81 975.716 1186.42 971.833C1188.03 967.95 1190.39 964.423 1193.36 961.451C1196.33 958.479 1199.86 956.122 1203.74 954.514C1207.62 952.905 1211.78 952.077 1215.99 952.078ZM1472.01 952.078C1476.21 952.077 1480.37 952.905 1484.25 954.514C1488.14 956.122 1491.66 958.479 1494.64 961.451C1497.61 964.423 1499.96 967.95 1501.57 971.833C1503.18 975.716 1504.01 979.877 1504.01 984.08C1504.01 988.283 1503.18 992.444 1501.57 996.327C1499.96 1000.21 1497.61 1003.74 1494.64 1006.71C1491.66 1009.68 1488.14 1012.04 1484.25 1013.65C1480.37 1015.25 1476.21 1016.08 1472.01 1016.08C1467.8 1016.08 1463.64 1015.25 1459.76 1013.65C1455.88 1012.04 1452.35 1009.68 1449.38 1006.71C1446.41 1003.74 1444.05 1000.21 1442.44 996.327C1440.83 992.444 1440 988.283 1440 984.08C1440 979.877 1440.83 975.716 1442.44 971.833C1444.05 967.95 1446.41 964.423 1449.38 961.451C1452.35 958.479 1455.88 956.122 1459.76 954.514C1463.64 952.905 1467.8 952.077 1472.01 952.078Z" fill="black"/>
<path fill-rule="evenodd" clip-rule="evenodd" d="M1131.39 778.044C1141.49 771.981 1154.6 775.258 1160.66 785.361L1211.87 870.701C1217.93 880.805 1214.65 893.91 1204.55 899.973C1194.44 906.035 1181.34 902.759 1175.28 892.655L1124.07 807.315C1118.01 797.211 1121.29 784.106 1131.39 778.044Z" fill="#30DD81"/>
<path fill-rule="evenodd" clip-rule="evenodd" d="M1556.58 778.044C1566.68 784.106 1569.96 797.211 1563.89 807.315L1512.69 892.655C1506.63 902.759 1493.52 906.035 1483.42 899.973C1473.31 893.91 1470.04 880.805 1476.1 870.701L1527.3 785.361C1533.37 775.258 1546.47 771.981 1556.58 778.044Z" fill="#30DD81"/>
<path d="M1344.06 808.066C1210.35 808.066 1100.5 909.624 1088.04 1039.46C1086.86 1064.1 1112.85 1064.09 1112.85 1064.09H1574.51C1574.51 1064.09 1601.25 1064.08 1599.95 1038.21C1586.92 908.964 1477.34 808.066 1344.06 808.066Z" fill="#30DD81"/>
<path opacity="0.2" d="M1215.99 952.078C1211.79 952.078 1207.63 952.905 1203.74 954.514C1199.86 956.122 1196.33 958.479 1193.36 961.451C1190.39 964.423 1188.03 967.951 1186.42 971.833C1184.81 975.716 1183.99 979.878 1183.99 984.08C1183.99 988.283 1184.81 992.444 1186.42 996.327C1188.03 1000.21 1190.39 1003.74 1193.36 1006.71C1196.33 1009.68 1199.86 1012.04 1203.74 1013.65C1207.63 1015.25 1211.79 1016.08 1215.99 1016.08C1220.19 1016.08 1224.35 1015.25 1228.24 1013.65C1232.12 1012.04 1235.65 1009.68 1238.62 1006.71C1241.59 1003.74 1243.95 1000.21 1245.56 996.327C1247.16 992.444 1247.99 988.283 1247.99 984.08C1247.99 979.878 1247.16 975.716 1245.56 971.833C1243.95 967.951 1241.59 964.423 1238.62 961.451C1235.65 958.479 1232.12 956.122 1228.24 954.514C1224.35 952.905 1220.19 952.078 1215.99 952.078V952.078ZM1472.01 952.078C1467.81 952.078 1463.65 952.905 1459.76 954.514C1455.88 956.122 1452.35 958.479 1449.38 961.451C1446.41 964.423 1444.05 967.951 1442.44 971.833C1440.84 975.716 1440.01 979.878 1440.01 984.08C1440.01 988.283 1440.84 992.444 1442.44 996.327C1444.05 1000.21 1446.41 1003.74 1449.38 1006.71C1452.35 1009.68 1455.88 1012.04 1459.76 1013.65C1463.65 1015.25 1467.81 1016.08 1472.01 1016.08C1476.21 1016.08 1480.37 1015.25 1484.26 1013.65C1488.14 1012.04 1491.67 1009.68 1494.64 1006.71C1497.61 1003.74 1499.97 1000.21 1501.58 996.327C1503.18 992.444 1504.01 988.283 1504.01 984.08C1504.01 979.878 1503.18 975.716 1501.58 971.833C1499.97 967.951 1497.61 964.423 1494.64 961.451C1491.67 958.479 1488.14 956.122 1484.26 954.514C1480.37 952.905 1476.21 952.078 1472.01 952.078Z" fill="black"/>
<path d="M1215.99 936.076C1220.19 936.076 1224.35 936.904 1228.23 938.512C1232.12 940.121 1235.64 942.478 1238.62 945.45C1241.59 948.421 1243.94 951.949 1245.55 955.832C1247.16 959.715 1247.99 963.876 1247.99 968.079C1247.99 972.282 1247.16 976.443 1245.55 980.326C1243.94 984.209 1241.59 987.737 1238.62 990.708C1235.64 993.68 1232.12 996.037 1228.23 997.645C1224.35 999.254 1220.19 1000.08 1215.99 1000.08C1211.78 1000.08 1207.62 999.254 1203.74 997.645C1199.86 996.037 1196.33 993.68 1193.36 990.708C1190.38 987.737 1188.03 984.209 1186.42 980.326C1184.81 976.443 1183.98 972.282 1183.98 968.079C1183.98 963.876 1184.81 959.715 1186.42 955.832C1188.03 951.949 1190.39 948.421 1193.36 945.45C1196.33 942.478 1199.86 940.121 1203.74 938.512C1207.62 936.904 1211.78 936.076 1215.99 936.076V936.076Z" fill="white"/>
<path d="M1472.01 936.076C1476.21 936.076 1480.37 936.904 1484.25 938.512C1488.14 940.121 1491.66 942.478 1494.64 945.45C1497.61 948.421 1499.96 951.949 1501.57 955.832C1503.18 959.715 1504.01 963.876 1504.01 968.079C1504.01 972.282 1503.18 976.443 1501.57 980.326C1499.96 984.209 1497.61 987.737 1494.64 990.708C1491.66 993.68 1488.14 996.037 1484.25 997.645C1480.37 999.254 1476.21 1000.08 1472.01 1000.08C1467.8 1000.08 1463.64 999.254 1459.76 997.645C1455.88 996.037 1452.35 993.68 1449.38 990.708C1446.41 987.737 1444.05 984.209 1442.44 980.326C1440.83 976.443 1440 972.282 1440 968.079C1440 963.876 1440.83 959.715 1442.44 955.832C1444.05 951.949 1446.41 948.421 1449.38 945.45C1452.35 942.478 1455.88 940.121 1459.76 938.512C1463.64 936.904 1467.8 936.076 1472.01 936.076Z" fill="white"/>
</g>
<defs>
<clipPath id="clip0_1_45">
<rect width="1920" height="1080" fill="white"/>
</clipPath>
</defs>
</svg>
